# xmcd CD database file
#
# Track frame offsets:
#	150
#	54365
#	98812
#
# Disc length: 2599 seconds
#
# Revision: 1
# Processed by: cddbd v1.5.2PL0 Copyright (c) Steve Scherf et al.
# Submitted via: CDex 1.70beta2
#
DISCID=1b0a2503
DTITLE=Mahavishnu Orchestra - Between Nothingness and Eternity
DYEAR=1973
DGENRE=Jazz
TTITLE0=Trilogy■f
TTITLE1=Sister Andrea■f
TTITLE2=Dream■f
EXTD=YEAR: 1973
EXTT0=
EXTT1=
EXTT2=
PLAYORDER=
